<?xml version="1.0" standalone="no"?><!DOCTYPE svg PUBLIC "-//W3C//DTD SVG 1.1//EN" "http://www.w3.org/Graphics/SVG/1.1/DTD/svg11.dtd"><svg t="1588600994948" class="icon" viewBox="0 0 1024 1024" version="1.1" xmlns="http://www.w3.org/2000/svg" p-id="3214" xmlns:xlink="http://www.w3.org/1999/xlink" width="128" height="128"><defs><style type="text/css"></style></defs><path d="M509.194094 302.473963m-238.621702 0a233.187 233.187 0 1 0 477.243405 0 233.187 233.187 0 1 0-477.243405 0ZM888.427278 793.885042c-3.690042-11.828396-9.178033-23.463388-16.249079-34.782178-18.231223-35.761482-34.957163-61.801555-66.874083-94.771457-73.399707-75.818803-179.337481-120.095215-293.309232-120.752178-157.320025 0.907673-296.538787 89.774653-363.269607 220.667795-7.070023 11.31879-9.472745 23.982204-13.162788 35.811624-8.366551 26.820855-9.384741 62.83714 0.650823 87.131453 9.841136 23.822568 28.181853 43.548842 52.325739 56.614415 23.607674 12.775978 53.726645 19.197224 86.996376 19.645432 0.020466 0.12075 0.048095 0.2415 0.068562 0.363274L511.994883 963.813223l236.390895 0c0.020466-0.121773 0.047072-0.242524 0.068562-0.363274 33.269731-0.449231 63.387679-5.841032 86.996376-18.61701 24.143886-13.065574 41.456181-27.647687 51.297316-51.470255 4.931313-11.936867 9.499351-29.68509 9.785877-47.832402C896.828622 826.743404 892.683209 807.52776 888.427278 793.885042z" fill="#ffffff" p-id="3215"></path></svg>