<?xml version="1.0" standalone="no"?><!DOCTYPE svg PUBLIC "-//W3C//DTD SVG 1.1//EN" "http://www.w3.org/Graphics/SVG/1.1/DTD/svg11.dtd"><svg t="1588601648081" class="icon" viewBox="0 0 1024 1024" version="1.1" xmlns="http://www.w3.org/2000/svg" p-id="7603" xmlns:xlink="http://www.w3.org/1999/xlink" width="128" height="128"><defs><style type="text/css"></style></defs><path d="M511.8 244.5m-180 0a180 180 0 1 0 360 0 180 180 0 1 0-360 0Z" fill="#ffffff" p-id="7604"></path><path d="M565.8 812.2c-9-24.7-13.5-50.6-13.5-77 0-81.1 43-152.4 107.3-192.3-45.5-18.9-95.3-29.4-147.6-29.4-190.4 0-348.5 138.4-379 320h441.8c-3.3-6.9-6.3-14-9-21.3z" fill="#ffffff" p-id="7605"></path><path d="M842.9 562.5c-16.8-5.6-34.8-8.5-53.4-8.5-94.3 0-171 76.7-171 171 0 81.7 57.7 150.3 134.5 167.1 11.8 2.6 24 3.9 36.5 3.9 94.3 0 171-76.7 171-171 0-75.6-49.4-139.9-117.6-162.5z m-47.1 193.6h-12.6c-16.3 0-29.7-13.4-29.7-29.7v-83.8c0-16.3 13.4-29.7 29.7-29.7h12.6c16.3 0 29.7 13.4 29.7 29.7v83.8c0 16.3-13.4 29.7-29.7 29.7z m29.7 65.3c0 19.9-16.1 36-36 36s-36-16.1-36-36 16.1-36 36-36 36 16.1 36 36z" fill="#ffffff" p-id="7606"></path></svg>